<svg width="47" height="46" viewBox="0 0 47 46" fill="none" xmlns="http://www.w3.org/2000/svg">
<path d="M23.3671 45.9998C36.0783 45.9998 46.3829 35.7024 46.3829 22.9999C46.3829 10.2974 36.0783 0 23.3671 0C10.6558 0 0.351257 10.2974 0.351257 22.9999C0.351257 35.7024 10.6558 45.9998 23.3671 45.9998Z" fill="#22315E"/>
<path fill-rule="evenodd" clip-rule="evenodd" d="M28.7898 33.5259C27.958 33.5259 27.1617 33.3659 26.3655 33.1347C21.0363 31.5877 17.0461 28.276 13.8166 23.8841C12.5933 22.2127 11.4857 20.5191 11.0942 18.4653C10.6716 16.0027 11.3789 13.9134 13.2205 12.2198C13.7988 11.6774 15.5737 11.4463 16.2899 11.793C16.5435 11.9086 16.717 12.1264 16.846 12.4153C17.5132 13.9934 18.1716 15.5848 18.8299 17.1629C18.9678 17.4607 18.8967 17.7719 18.7588 18.083C18.4251 18.8076 17.8824 19.3855 17.3175 20.0078C16.9127 20.4213 16.8904 20.8124 17.2018 21.3192C19.0924 24.4487 21.6858 26.7291 25.0754 28.0893C25.6048 28.3071 25.9873 28.2271 26.321 27.8137C26.8993 27.1114 27.4953 26.409 28.0291 25.6844C28.3984 25.1866 28.8165 25.1199 29.3325 25.351C30.4757 25.8489 31.5789 26.3868 32.7133 26.9291C32.9668 27.0447 33.2115 27.1469 33.465 27.2625C34.6083 27.8493 34.5816 27.8493 34.4926 29.1251C34.3102 31.5433 32.4642 32.788 30.2711 33.3659C29.7818 33.5259 29.3014 33.5259 28.7898 33.5259Z" fill="white"/>
<path fill-rule="evenodd" clip-rule="evenodd" d="M30.9116 14.5359C31.8013 15.2961 32.4329 16.3097 32.9623 17.381C33.3537 18.2346 33.6073 19.1548 33.7941 20.0884C33.8075 20.2707 33.8875 20.4663 33.7141 20.6663C33.1936 20.7108 32.6865 20.7108 32.1794 20.7463C31.997 20.7819 31.9258 20.7463 31.9036 20.5507C31.6723 18.777 30.9472 17.2299 29.7372 15.9629C27.9846 14.0602 25.7826 13.14 23.1848 13.2067C23.1269 13.2067 23.0691 13.2067 22.8867 13.2067C22.8422 12.6776 22.8422 12.0997 22.8156 11.5129C22.9312 11.3262 23.1269 11.3262 23.3004 11.3262C24.3858 11.3262 25.4223 11.4418 26.4365 11.7396C27.2773 12.0152 28.0735 12.3487 28.8342 12.8243C29.0433 12.9488 29.2479 13.1 29.457 13.2956C29.6438 13.4467 29.9641 13.709 30.1376 13.8735C30.3377 14.0291 30.7292 14.3403 30.9116 14.5359Z" fill="white"/>
<path fill-rule="evenodd" clip-rule="evenodd" d="M28.3982 15.9673C29.8172 17.1985 30.6802 18.7454 30.9693 20.59C31.0049 20.8212 30.9471 20.9012 30.7291 20.9012C30.2665 20.9012 29.8305 20.9456 29.3679 21.0256C29.23 21.0256 29.1722 20.9812 29.1633 20.8167C28.932 19.1943 28.1135 17.9231 26.7879 17.003C25.7959 16.3095 24.6793 15.9673 23.4649 15.9984C23.2603 15.9984 23.2114 15.9628 23.1891 15.7673C23.1891 15.2961 23.1313 14.8471 23.0735 14.3849C23.0735 14.2249 23.118 14.1893 23.2603 14.1893C25.1909 14.1137 26.8991 14.7316 28.3982 15.9673Z" fill="white"/>
<path fill-rule="evenodd" clip-rule="evenodd" d="M26.4855 21.2432C26.2764 19.7318 25.1465 18.696 23.6474 18.6605C23.4961 18.6605 23.4383 18.6605 23.4383 18.5004C23.4027 18.0515 23.3671 17.5758 23.3004 17.1046C23.3004 16.9668 23.3227 16.9224 23.4606 16.9224C25.6981 16.7623 27.9935 18.696 28.2337 20.9453C28.2337 21.0965 28.1892 21.0965 28.0735 21.0965C27.5575 21.1276 27.0504 21.2076 26.4855 21.2432Z" fill="white"/>
</svg>
