<svg width="65" height="65" viewBox="0 0 65 65" fill="none" xmlns="http://www.w3.org/2000/svg">
<circle cx="32.5" cy="32.5" r="32.5" fill="white"/>
<path d="M19 19.808V46.7624C19 48.8637 20.8874 50.5704 23.2099 50.5704H41.7901C44.1126 50.5704 46 48.9971 46 47.0664V22.6773C46 21.584 45.401 20.576 44.3782 19.9146V19.808C44.3782 17.7067 42.4908 16 40.1683 16H23.2156C20.8874 16 19 17.7067 19 19.808ZM20.3449 19.808C20.3449 18.4106 21.6277 17.2747 23.2099 17.2747H40.1626C41.7449 17.2747 43.0276 18.4106 43.0276 19.808V20.2666C43.0276 20.496 43.1576 20.7093 43.3723 20.8213C44.1691 21.2373 44.6494 21.9306 44.6494 22.6773V47.0664C44.6494 48.2984 43.3667 49.3011 41.7844 49.3011H23.2099C21.6277 49.3011 20.3449 48.1651 20.3449 46.7678V19.808Z" fill="#313C66"/>
<path d="M23.6229 21.7069C23.7416 21.8029 23.8942 21.8509 24.0524 21.8509H27.3582V32.4854C27.3582 32.7414 27.5164 32.9708 27.765 33.0721C27.8498 33.1041 27.9402 33.1254 28.0306 33.1254C28.2002 33.1254 28.3697 33.0668 28.494 32.9494L31.2799 30.4375L34.2071 32.9601C34.4048 33.1308 34.6874 33.1734 34.9304 33.0721C35.1734 32.9708 35.3316 32.7414 35.3316 32.4908V21.8509H41.881C42.1522 21.8509 42.3952 21.7015 42.5026 21.4669C42.5534 21.3495 43.0055 20.2989 42.48 19.3549C42.2539 18.9496 41.7623 18.4269 40.6886 18.2242C40.6434 18.2189 40.5982 18.2136 40.5587 18.2136H24.0524C24.0128 18.2136 23.9733 18.2189 23.9337 18.2242C23.7925 18.2456 22.5662 18.4802 22.3063 19.4082C22.0124 20.4589 23.2217 21.3975 23.6229 21.7069ZM24.1202 19.4882H40.4965C40.9034 19.5736 41.1746 19.7282 41.2989 19.9469C41.4063 20.1389 41.412 20.3789 41.3781 20.5815H34.6648C34.2918 20.5815 33.9923 20.8642 33.9923 21.2162V31.0455L31.7263 29.0935C31.5964 28.9815 31.4325 28.9281 31.2743 28.9281C31.1047 28.9281 30.9408 28.9868 30.8109 29.1041L28.7087 31.0028V21.2162C28.7087 20.8642 28.4092 20.5815 28.0363 20.5815H24.301C23.6003 19.9949 23.6116 19.7336 23.6116 19.7336C23.6399 19.6642 23.8829 19.5416 24.1202 19.4882Z" fill="#313C66"/>
<path d="M29.9133 26.5601L29.7551 27.4294C29.7325 27.5468 29.7834 27.6694 29.8907 27.7388C29.9472 27.7814 30.0207 27.7974 30.0885 27.7974C30.1394 27.7974 30.1959 27.7868 30.2467 27.7601L31.0774 27.3494L31.9081 27.7601C32.0211 27.8188 32.1567 27.8081 32.2641 27.7334C32.3658 27.6641 32.4167 27.5414 32.3997 27.4241L32.2415 26.5548L32.9083 25.9361C32.9987 25.8508 33.0326 25.7281 32.9931 25.6108C32.9535 25.4935 32.8461 25.4135 32.7218 25.3975L31.7951 25.2695L31.3826 24.4801C31.3261 24.3735 31.2074 24.3041 31.0831 24.3041C30.9531 24.3041 30.8401 24.3735 30.7836 24.4801L30.3711 25.2695L29.4443 25.3975C29.32 25.4135 29.2126 25.4988 29.1731 25.6108C29.1335 25.7281 29.1674 25.8508 29.2578 25.9361L29.9133 26.5601ZM30.631 25.8828C30.7384 25.8668 30.8344 25.8028 30.8853 25.7068L31.0774 25.3441L31.2695 25.7068C31.3204 25.8028 31.4108 25.8668 31.5238 25.8828L31.9477 25.9415L31.6425 26.2241C31.5634 26.2988 31.5295 26.4001 31.5464 26.5068L31.6199 26.9068L31.2413 26.7201C31.1904 26.6935 31.1396 26.6828 31.0831 26.6828C31.0322 26.6828 30.9757 26.6935 30.9248 26.7201L30.5462 26.9068L30.6197 26.5068C30.6366 26.4055 30.6027 26.2988 30.5236 26.2241L30.2185 25.9415L30.631 25.8828Z" fill="#313C66"/>
</svg>
