<svg width="47" height="46" viewBox="0 0 47 46" fill="none" xmlns="http://www.w3.org/2000/svg">
<g clip-path="url(#clip0_4_502)">
<path d="M46.2302 22.9917C46.2302 10.2941 35.929 0 23.2227 0C10.5165 0 0.215271 10.2941 0.215271 22.9917C0.215271 34.467 8.62842 43.9782 19.6288 45.7034V29.6374H13.787V22.9917H19.6288V17.9254C19.6288 12.1627 23.0633 8.9809 28.3198 8.9809C30.8365 8.9809 33.4693 9.42927 33.4693 9.42927V15.0873H30.5677C27.7095 15.0873 26.8189 16.8602 26.8189 18.6787V22.9917H33.2005L32.1802 29.6374H26.8167V45.7034C37.8171 43.9782 46.2302 34.467 46.2302 22.9917Z" fill="#22315E"/>
<path d="M32.1779 29.6375L33.1983 22.9917H26.8167V18.6788C26.8167 16.8603 27.7072 15.0873 30.5655 15.0873H33.467V9.42932C33.467 9.42932 30.8342 8.98096 28.3175 8.98096C23.0633 8.98096 19.6265 12.165 19.6265 17.9254V22.9917H13.787V29.6375H19.6288V45.7034C20.7995 45.8878 21.9997 45.9834 23.2227 45.9834C24.4458 45.9834 25.646 45.8878 26.8167 45.7034V29.6375H32.1779Z" fill="white"/>
</g>
<defs>
<clipPath id="clip0_4_502">
<rect width="46.0149" height="45.9833" fill="white" transform="translate(0.215271)"/>
</clipPath>
</defs>
</svg>
