<svg width="47" height="46" viewBox="0 0 47 46" fill="none" xmlns="http://www.w3.org/2000/svg">
<g clip-path="url(#clip0_4_506)">
<path d="M23.3322 45.9875C36.04 45.9875 46.3418 35.6929 46.3418 22.9938C46.3418 10.2947 36.04 0 23.3322 0C10.6244 0 0.322632 10.2947 0.322632 22.9938C0.322632 35.6929 10.6244 45.9875 23.3322 45.9875Z" fill="#22315E"/>
<path d="M30.4727 14.2964C29.6007 14.2964 28.8929 15.0036 28.8929 15.875C28.8929 16.7465 29.6007 17.4537 30.4727 17.4537C31.3447 17.4537 32.0524 16.7465 32.0524 15.875C32.0567 15.0036 31.3447 14.2964 30.4727 14.2964Z" fill="white"/>
<path d="M23.4418 16.3213C19.7768 16.3213 16.7984 19.2976 16.7984 22.9601C16.7984 26.6226 19.7768 29.5989 23.4418 29.5989C27.1068 29.5989 30.0852 26.6226 30.0852 22.9601C30.0852 19.2976 27.1068 16.3213 23.4418 16.3213ZM23.4418 27.212C21.0953 27.212 19.187 25.3049 19.187 22.9601C19.187 20.6153 21.0953 18.7082 23.4418 18.7082C25.7882 18.7082 27.6966 20.6153 27.6966 22.9601C27.6966 25.3049 25.7882 27.212 23.4418 27.212Z" fill="white"/>
<path d="M28.716 36.4398H17.9442C13.4746 36.4398 9.83905 32.8068 9.83905 28.3402V17.5801C9.83905 13.1135 13.4746 9.48047 17.9442 9.48047H28.716C33.1856 9.48047 36.8212 13.1135 36.8212 17.5801V28.3444C36.8212 32.8068 33.1856 36.4398 28.716 36.4398ZM17.9442 12.019C14.8774 12.019 12.3793 14.5154 12.3793 17.5801V28.3444C12.3793 31.4092 14.8774 33.9056 17.9442 33.9056H28.716C31.7828 33.9056 34.2809 31.4092 34.2809 28.3444V17.5801C34.2809 14.5154 31.7828 12.019 28.716 12.019H17.9442Z" fill="white"/>
</g>
<defs>
<clipPath id="clip0_4_506">
<rect width="46.0149" height="45.9833" fill="white" transform="translate(0.322632)"/>
</clipPath>
</defs>
</svg>
