<svg width="65" height="65" viewBox="0 0 65 65" fill="none" xmlns="http://www.w3.org/2000/svg">
<circle cx="32.5" cy="32.5" r="32.5" fill="white"/>
<path d="M38.5955 23.7192C38.3792 23.7192 38.2017 23.8885 38.2017 24.0948C38.2017 24.3011 38.3792 24.4704 38.5955 24.4704C38.8118 24.4704 38.9893 24.3011 38.9893 24.0948C38.9893 23.8885 38.8118 23.7192 38.5955 23.7192Z" fill="white"/>
<path d="M25.5162 24.0948C25.5162 23.8885 25.3387 23.7192 25.1223 23.7192C24.906 23.7192 24.7285 23.8885 24.7285 24.0948C24.7285 24.3011 24.906 24.4704 25.1223 24.4704C25.3442 24.4651 25.5162 24.3011 25.5162 24.0948Z" fill="white"/>
<path d="M24.7339 24.0948C24.7339 23.8885 24.9114 23.7192 25.1277 23.7192C25.344 23.7192 25.5215 23.8885 25.5215 24.0948C25.5215 24.3011 25.344 24.4704 25.1277 24.4704C24.9114 24.4651 24.7339 24.3011 24.7339 24.0948Z" fill="white"/>
<path d="M38.5955 24.4651C38.3792 24.4651 38.2017 24.2958 38.2017 24.0895C38.2017 23.8832 38.3792 23.7139 38.5955 23.7139C38.8118 23.7139 38.9893 23.8832 38.9893 24.0895C38.9893 24.2958 38.8118 24.4651 38.5955 24.4651Z" fill="white"/>
<path d="M44.8188 20.492C44.7966 20.2169 44.5581 20 44.2641 20H19.4586C19.1702 20 18.9261 20.2116 18.904 20.492L17.0014 45.4516C16.9903 45.5997 17.0458 45.7426 17.1512 45.8484C17.2566 45.9542 17.4008 46.0177 17.5561 46.0177H46.1722C46.3275 46.0177 46.4717 45.9542 46.5771 45.8484C46.6825 45.7426 46.738 45.5944 46.7269 45.4516L44.8188 20.492Z" stroke="#22315E" stroke-width="2" stroke-miterlimit="10"/>
<path d="M39.1496 25.4225V29.549C39.1274 33.9717 35.8548 37.5744 31.8611 37.5744C27.8673 37.5744 24.6003 33.977 24.5725 29.5543V25.4225C24.0178 25.2109 23.624 24.6978 23.624 24.0947C23.624 23.3064 24.2952 22.661 25.1272 22.661C25.9537 22.661 26.6304 23.3011 26.6304 24.0947C26.6304 24.6978 26.2366 25.2109 25.6819 25.4225V29.549C25.7041 33.3897 28.4775 36.5163 31.8611 36.5163C35.2502 36.5163 38.0236 33.3897 38.0402 29.549V25.4225C37.4856 25.2109 37.0917 24.6978 37.0917 24.0947C37.0917 23.3064 37.7629 22.661 38.5949 22.661C39.4214 22.661 40.0981 23.3011 40.0981 24.0947C40.0981 24.6978 39.7043 25.2109 39.1496 25.4225Z" fill="#22315E"/>
<path d="M19.1758 43.8274H18.6211V44.3564H19.1758V43.8274Z" fill="#22315E"/>
<path d="M20.2852 43.8274H19.7305V44.3564H20.2852V43.8274Z" fill="#22315E"/>
<path d="M21.3999 43.8274H20.8452V44.3564H21.3999V43.8274Z" fill="#22315E"/>
<path d="M22.5151 43.8274H21.9604V44.3564H22.5151V43.8274Z" fill="#22315E"/>
<path d="M23.6245 43.8274H23.0698V44.3564H23.6245V43.8274Z" fill="#22315E"/>
<path d="M24.7393 43.8274H24.1846V44.3564H24.7393V43.8274Z" fill="#22315E"/>
<path d="M25.854 43.8274H25.2993V44.3564H25.854V43.8274Z" fill="#22315E"/>
<path d="M26.9634 43.8274H26.4087V44.3564H26.9634V43.8274Z" fill="#22315E"/>
<path d="M28.0786 43.8274H27.5239V44.3564H28.0786V43.8274Z" fill="#22315E"/>
<path d="M29.1934 43.8274H28.6387V44.3564H29.1934V43.8274Z" fill="#22315E"/>
<path d="M30.3027 43.8274H29.748V44.3564H30.3027V43.8274Z" fill="#22315E"/>
<path d="M31.418 43.8274H30.8633V44.3564H31.418V43.8274Z" fill="#22315E"/>
<path d="M32.5327 43.8274H31.978V44.3564H32.5327V43.8274Z" fill="#22315E"/>
<path d="M33.6475 43.8274H33.0928V44.3564H33.6475V43.8274Z" fill="#22315E"/>
<path d="M34.7568 43.8274H34.2021V44.3564H34.7568V43.8274Z" fill="#22315E"/>
<path d="M35.8721 43.8274H35.3174V44.3564H35.8721V43.8274Z" fill="#22315E"/>
<path d="M36.9868 43.8274H36.4321V44.3564H36.9868V43.8274Z" fill="#22315E"/>
<path d="M38.0962 43.8274H37.5415V44.3564H38.0962V43.8274Z" fill="#22315E"/>
<path d="M39.2109 43.8274H38.6562V44.3564H39.2109V43.8274Z" fill="#22315E"/>
<path d="M40.3252 43.8274H39.7705V44.3564H40.3252V43.8274Z" fill="#22315E"/>
<path d="M41.4355 43.8274H40.8809V44.3564H41.4355V43.8274Z" fill="#22315E"/>
<path d="M42.5503 43.8274H41.9956V44.3564H42.5503V43.8274Z" fill="#22315E"/>
<path d="M43.6645 43.8274H43.1099V44.3564H43.6645V43.8274Z" fill="#22315E"/>
<path d="M44.7739 43.8274H44.2192V44.3564H44.7739V43.8274Z" fill="#22315E"/>
</svg>
