<svg width="65" height="65" viewBox="0 0 65 65" fill="none" xmlns="http://www.w3.org/2000/svg">
<circle cx="32.5" cy="32.5" r="32.5" fill="white"/>
<path d="M37.6992 55.333C37.6172 55.333 37.5352 55.3214 37.4532 55.304L27.9523 53.2213C27.6595 53.1574 27.4134 52.9828 27.2494 52.7327C27.0913 52.4825 27.0386 52.1859 27.103 51.895L36.2114 11.0166C36.2759 10.7258 36.4516 10.4814 36.7035 10.3186C36.9553 10.1615 37.2541 10.1091 37.5469 10.1731L47.042 12.2615C47.3348 12.3255 47.5808 12.5001 47.7449 12.7502C47.903 13.0003 47.9557 13.297 47.8913 13.5879L38.7887 54.4604C38.7243 54.7513 38.5486 54.9956 38.2967 55.1585C38.1151 55.2749 37.9101 55.333 37.6992 55.333ZM37.3068 11.0748C37.2599 11.0748 37.2248 11.0923 37.2072 11.1039C37.1838 11.1214 37.1369 11.1563 37.1252 11.2202L28.0109 52.0928C27.9933 52.1568 28.0226 52.2091 28.0343 52.2324C28.0519 52.2557 28.0871 52.3022 28.1515 52.3138L37.6465 54.4023C37.7109 54.4139 37.7637 54.3906 37.7871 54.379C37.8105 54.3615 37.8574 54.3266 37.8691 54.2626L46.9775 13.3843C46.9951 13.3203 46.9658 13.2679 46.9541 13.2447C46.9365 13.2214 46.9014 13.1749 46.8369 13.1632L37.3361 11.0748C37.3302 11.0748 37.3185 11.0748 37.3068 11.0748Z" fill="#313C66"/>
<path d="M35.7409 14.588L35.5156 15.5991L40.5715 16.7104L40.7968 15.6993L35.7409 14.588Z" fill="#313C66"/>
<path d="M34.7419 19.4147L34.5166 20.4258L38.1083 21.2153L38.3336 20.2042L34.7419 19.4147Z" fill="#313C66"/>
<path d="M33.5905 24.2294L33.3652 25.2404L38.4211 26.3517L38.6464 25.3407L33.5905 24.2294Z" fill="#313C66"/>
<path d="M32.5993 29.0596L32.374 30.0707L35.9657 30.8602L36.191 29.8491L32.5993 29.0596Z" fill="#313C66"/>
<path d="M31.4519 33.8232L31.2266 34.8343L36.2824 35.9456L36.5077 34.9345L31.4519 33.8232Z" fill="#313C66"/>
<path d="M30.4607 38.6523L30.2354 39.6633L33.8271 40.4528L34.0524 39.4418L30.4607 38.6523Z" fill="#313C66"/>
<path d="M29.3122 43.4409L29.0869 44.4519L34.1427 45.5632L34.3681 44.5522L29.3122 43.4409Z" fill="#313C66"/>
<path d="M28.3142 48.2666L28.0889 49.2776L31.6806 50.0671L31.9059 49.0561L28.3142 48.2666Z" fill="#313C66"/>
<path d="M29.7569 19.8474C29.7218 19.8474 29.6925 19.8416 29.6573 19.8358L22.845 18.3407C22.681 18.3058 22.5463 18.1837 22.4995 18.0208L22.4877 17.9917C22.4467 17.8579 22.4702 17.7124 22.5463 17.5961L26.2658 12.1744C26.3713 12.0173 26.5646 11.9417 26.752 11.9824L28.8021 12.4361C28.9896 12.4769 29.1301 12.6281 29.1594 12.8143L30.2314 19.2889C30.2548 19.4286 30.2138 19.5682 30.1201 19.6729L30.0966 19.6962C30.0146 19.7892 29.8858 19.8474 29.7569 19.8474ZM23.6885 17.5786L29.2122 18.7945L28.2984 13.2738L26.8633 12.9597L23.6885 17.5786Z" fill="#313C66"/>
<path d="M28.7257 13.3262C28.6906 13.3262 28.6613 13.3203 28.6261 13.3145L26.576 12.8666C26.4237 12.8317 26.3007 12.727 26.2421 12.5874C26.1836 12.4419 26.2011 12.2849 26.289 12.1569L27.5191 10.3651C27.7124 10.0801 27.9994 9.95211 28.2864 10.0161C28.5734 10.0801 28.7726 10.3186 28.8312 10.656L29.1826 12.7968C29.206 12.948 29.1533 13.0993 29.042 13.2098C28.96 13.2796 28.8429 13.3262 28.7257 13.3262ZM27.4488 12.1103L28.1575 12.2674L27.9994 11.3134L27.4488 12.1103Z" fill="#313C66"/>
<path d="M24.0153 45.7927C23.9802 45.7927 23.9509 45.7869 23.9158 45.781L17.0449 44.2685C16.9219 44.2394 16.8223 44.1696 16.752 44.0649C16.6876 43.9602 16.6642 43.8381 16.6876 43.7159L22.4279 17.951C22.4572 17.8288 22.5275 17.7299 22.633 17.6601C22.7384 17.5961 22.8614 17.5728 22.9844 17.5961L29.8553 19.1086C30.1071 19.161 30.2653 19.4111 30.2067 19.6612L24.4664 45.4262C24.4254 45.6472 24.2321 45.7927 24.0153 45.7927ZM17.7009 43.4716L23.6639 44.7805L29.2051 19.9172L23.2421 18.6083L17.7009 43.4716Z" fill="#313C66"/>
<path d="M20.156 51.3307C19.8104 51.3307 19.4473 51.29 19.0724 51.2085C17.9302 50.9584 17.0867 50.4058 16.5712 49.5739C15.675 48.1428 16.0968 46.4034 16.1143 46.3336L16.3076 45.4785C16.3369 45.3563 16.4072 45.2574 16.5127 45.1876C16.6181 45.1236 16.7411 45.1004 16.8641 45.1236L23.735 46.6361C23.9868 46.6885 24.145 46.9386 24.0864 47.1888L23.858 48.2243C23.8345 48.3232 23.4714 49.9171 22.1066 50.7897C21.5325 51.1504 20.8824 51.3307 20.156 51.3307ZM17.1101 46.13L17.0164 46.5431C17.0105 46.5663 16.6767 47.9974 17.362 49.091C17.7427 49.7019 18.3871 50.1091 19.2715 50.301C20.1912 50.5047 20.9702 50.4058 21.5911 50.0044C22.6455 49.3296 22.9325 48.0323 22.9325 48.0207C22.9325 48.0207 22.9325 48.0207 22.9325 48.0148L23.0613 47.4331L17.1101 46.13Z" fill="#313C66"/>
<path d="M21.6965 45.2807C21.6613 45.2807 21.632 45.2749 21.5969 45.2691L19.2773 44.7571C19.1543 44.7281 19.0547 44.6583 18.9844 44.5535C18.92 44.4488 18.8966 44.3267 18.92 44.2045L24.6545 18.4628C24.7072 18.2127 24.9591 18.0556 25.211 18.1138L27.5305 18.6257C27.6536 18.6548 27.7531 18.7246 27.8234 18.8293C27.8879 18.934 27.9113 19.0562 27.8879 19.1784L22.1534 44.92C22.1065 45.1353 21.9132 45.2807 21.6965 45.2807ZM19.9334 43.9602L21.345 44.2685L26.8804 19.4285L25.4687 19.1202L19.9334 43.9602Z" fill="#313C66"/>
<path d="M23.6237 47.5494C23.5886 47.5494 23.5593 47.5436 23.5242 47.5378L16.6533 46.0253C16.5303 45.9962 16.4307 45.9264 16.3604 45.8217C16.296 45.717 16.2726 45.5948 16.296 45.4727L16.6884 43.7158C16.747 43.4657 16.993 43.3086 17.2449 43.3668L24.1158 44.8793C24.2388 44.9084 24.3383 44.9782 24.4086 45.0829C24.4731 45.1876 24.4965 45.3098 24.4731 45.4319L24.0806 47.1888C24.0513 47.3109 23.981 47.4098 23.8756 47.4796C23.7995 47.5262 23.7116 47.5494 23.6237 47.5494ZM17.3093 45.2283L23.2723 46.5372L23.4597 45.6821L17.5026 44.3732L17.3093 45.2283Z" fill="#313C66"/>
</svg>
