<svg width="47" height="46" viewBox="0 0 47 46" fill="none" xmlns="http://www.w3.org/2000/svg">
<g clip-path="url(#clip0_4_513)">
<path d="M23.2766 45.9833C35.9833 45.9833 46.2841 35.6896 46.2841 22.9917C46.2841 10.2937 35.9833 0 23.2766 0C10.57 0 0.269165 10.2937 0.269165 22.9917C0.269165 35.6896 10.57 45.9833 23.2766 45.9833Z" fill="#22315E"/>
<path d="M35.9887 15.115C35.1907 15.4748 34.3117 15.6952 33.4521 15.8378C33.8608 15.7697 34.4609 15.0307 34.7009 14.7325C35.0674 14.2787 35.3724 13.7568 35.5443 13.196C35.567 13.1539 35.5832 13.0988 35.5378 13.0631C35.4826 13.0404 35.447 13.0534 35.4048 13.0728C34.4447 13.5882 33.4521 13.961 32.3947 14.2236C32.3071 14.2463 32.2422 14.2236 32.1871 14.1685C32.0995 14.0712 32.0184 13.9772 31.9243 13.8994C31.4799 13.5234 31.0031 13.2252 30.4679 13.008C29.764 12.7195 28.992 12.5996 28.233 12.6482C27.4934 12.6968 26.7669 12.9043 26.1116 13.2479C25.4532 13.5915 24.8693 14.068 24.4022 14.645C23.9189 15.2414 23.5621 15.9448 23.3804 16.6903C23.2053 17.4099 23.2183 18.123 23.3253 18.8491C23.3415 18.9691 23.3318 18.9853 23.2215 18.9691C19.0891 18.3532 15.6637 16.8783 12.8839 13.7114C12.7639 13.5753 12.699 13.5753 12.5984 13.7211C11.382 15.5428 11.9724 18.4731 13.4937 19.9123C13.6948 20.1036 13.9056 20.2948 14.1295 20.4699C14.0484 20.4861 13.0363 20.3758 12.1346 19.9123C12.0146 19.8345 11.9529 19.8799 11.9432 20.016C11.9335 20.2138 11.9497 20.3953 11.9756 20.6092C12.2092 22.4569 13.4904 24.1651 15.242 24.8329C15.4496 24.9204 15.6799 24.9982 15.9037 25.0338C15.5048 25.1213 15.0928 25.1829 13.9478 25.0954C13.8051 25.0695 13.7499 25.1408 13.8051 25.2769C14.6647 27.6205 16.5233 28.3207 17.9148 28.7161C18.0997 28.7485 18.2879 28.7485 18.476 28.7939C18.4663 28.8101 18.4533 28.8101 18.4436 28.8263C17.983 29.5297 16.3806 30.0516 15.6345 30.3142C14.2787 30.7874 12.8028 31.0013 11.3691 30.8587C11.1388 30.8263 11.0901 30.8263 11.0285 30.8587C10.9669 30.8976 11.022 30.9527 11.0934 31.0111C11.3853 31.2023 11.6805 31.3741 11.9821 31.5362C12.8904 32.0192 13.8408 32.4017 14.8333 32.6772C19.9551 34.0905 25.7256 33.0532 29.5726 29.2348C32.5925 26.2364 33.6532 22.1003 33.6532 17.9577C33.6532 17.7956 33.8446 17.7049 33.9581 17.6206C34.7431 17.0307 35.3788 16.324 35.9627 15.5364C36.0957 15.3581 36.0957 15.2025 36.0957 15.1377C36.0957 15.1279 36.0957 15.115 36.0957 15.115C36.0925 15.0469 36.0925 15.0663 35.9887 15.115Z" fill="white"/>
</g>
<defs>
<clipPath id="clip0_4_513">
<rect width="46.0149" height="45.9833" fill="white" transform="translate(0.269165)"/>
</clipPath>
</defs>
</svg>
